<?xml version="1.0" encoding="UTF-8" standalone="no"?>
<svg
   xmlns:dc="http://purl.org/dc/elements/1.1/"
   xmlns:cc="http://creativecommons.org/ns#"
   xmlns:rdf="http://www.w3.org/1999/02/22-rdf-syntax-ns#"
   xmlns:svg="http://www.w3.org/2000/svg"
   xmlns="http://www.w3.org/2000/svg"
   xmlns:sodipodi="http://sodipodi.sourceforge.net/DTD/sodipodi-0.dtd"
   xmlns:inkscape="http://www.inkscape.org/namespaces/inkscape"
   version="1.1"
   viewBox="0 0 256 256"
   fill="none"
   stroke="none"
   stroke-linecap="square"
   stroke-miterlimit="10"
   id="svg19"
   sodipodi:docname="makhber.svg"
   width="256"
   height="256"
   inkscape:version="1.0.2-2 (e86c870879, 2021-01-15)">
  <metadata
     id="metadata25">
    <rdf:RDF>
      <cc:Work
         rdf:about="">
        <dc:format>image/svg+xml</dc:format>
        <dc:type
           rdf:resource="http://purl.org/dc/dcmitype/StillImage" />
        <dc:title />
      </cc:Work>
    </rdf:RDF>
  </metadata>
  <defs
     id="defs23" />
  <sodipodi:namedview
     pagecolor="#ffffff"
     bordercolor="#666666"
     borderopacity="1"
     objecttolerance="10"
     gridtolerance="10"
     guidetolerance="10"
     inkscape:pageopacity="0"
     inkscape:pageshadow="2"
     inkscape:window-width="1536"
     inkscape:window-height="801"
     id="namedview21"
     showgrid="false"
     fit-margin-top="0"
     fit-margin-left="0"
     fit-margin-right="0"
     fit-margin-bottom="0"
     inkscape:zoom="2.4591602"
     inkscape:cx="191.07868"
     inkscape:cy="139.10565"
     inkscape:window-x="-8"
     inkscape:window-y="-8"
     inkscape:window-maximized="1"
     inkscape:current-layer="g17"
     inkscape:document-rotation="0" />
  <clipPath
     id="p.0">
    <path
       d="M 0,0 H 960 V 720 H 0 Z"
       clip-rule="nonzero"
       id="path2" />
  </clipPath>
  <g
     clip-path="url(#p.0)"
     id="g17"
     transform="scale(0.26666667,0.35555556)">
    <path
       fill="#000000"
       fill-opacity="0"
       d="M 0,0 H 960 V 720 H 0 Z"
       fill-rule="evenodd"
       id="path5" />
    <path
       fill="#0000ff"
       d="m 0,360 v 0 C 0,161.17749 214.90332,0 480,0 v 0 c 265.09668,0 480,161.17749 480,360 v 0 c 0,198.82251 -214.90332,360 -480,360 v 0 C 214.90332,720 0,558.82251 0,360 Z"
       fill-rule="evenodd"
       id="path7" />
    <path
       stroke="#000000"
       stroke-width="1"
       stroke-linejoin="round"
       stroke-linecap="butt"
       d="m 0,360 v 0 C 0,161.17749 214.90332,0 480,0 v 0 c 265.09668,0 480,161.17749 480,360 v 0 c 0,198.82251 -214.90332,360 -480,360 v 0 C 214.90332,720 0,558.82251 0,360 Z"
       fill-rule="evenodd"
       id="path9" />
    <path
       fill="#000000"
       d="m 113.92126,360 v 0 C 113.92126,198.85461 277.82028,68.22046 480,68.22046 v 0 c 202.17969,0 366.07874,130.63414 366.07874,291.77954 v 0 c 0,161.14539 -163.89905,291.77954 -366.07874,291.77954 v 0 C 277.82028,651.77954 113.92126,521.14538 113.92126,360 Z"
       fill-rule="evenodd"
       id="path11" />
    <path
       fill="#ff0000"
       d="M 266.29479,321.08666 H 224.8858 v 17.58691 q 0,7.45453 -5.43534,16.01277 -5.43531,8.55823 -19.25925,15.05381 -13.79253,6.49557 -37.23041,6.49557 -21.30144,0 -33.02036,-4.45101 -11.71895,-4.451 -15.89754,-8.06971 12.12737,1.93601 25.9199,1.93601 16.30597,0 27.17661,-3.85392 10.90205,-3.85392 15.70903,-9.40863 4.80694,-5.53662 4.80694,-10.81993 l -0.40841,-125.9852 q 0,-10.11429 18.81939,-10.11429 7.94879,0 13.3841,2.29789 5.43534,2.27978 5.43534,7.58118 v 88.87539 h 41.40899 z M 403.891,304.2235 v 16.86316 h -39.74382 q -13.79254,0 -22.80952,-1.55604 -8.98556,-1.57413 -16.49449,-4.70432 -15.08066,5.53662 -34.71693,6.26036 H 266.27992 V 304.2235 h 23.84632 q 12.53579,-0.23521 23.84628,-2.89497 v -84.76815 q 0,-11.09134 18.81944,-11.09134 18.8194,0 18.8194,10.83803 v 68.1764 q 0,8.66679 1.85367,14.20341 1.88508,5.53662 9.01698,5.53662 z m -70.69062,63.83395 q -10.43078,0 -17.56268,-4.10723 -7.10049,-4.08913 -7.10049,-9.62575 0,-5.77184 7.10049,-9.87907 7.1319,-4.08913 17.56268,-4.08913 9.61392,0 16.7144,4.08913 7.13192,4.10723 7.13192,9.87907 0,5.53662 -7.13192,9.62575 -7.10048,4.10723 -16.7144,4.10723 z M 625.53436,304.2235 v 16.86316 h -20.89299 q -13.82395,0 -22.80951,-1.55604 -8.98555,-1.57413 -16.52588,-4.70432 -19.22786,6.26036 -46.84434,6.26036 H 403.87995 V 304.2235 h 87.84495 q 23.81487,0 38.23576,-1.44749 14.45229,-1.44748 26.57966,-9.86096 12.12737,-8.43158 12.12737,-27.23076 0,-21.67604 -21.33285,-32.51405 -21.33286,-10.83803 -74.86929,-10.83803 l -24.25474,0.23522 q -12.97564,0 -19.25925,-3.3654 -6.2522,-3.36539 -8.76565,-9.87906 -2.51343,-6.49558 -1.66513,-8.6668 5.84375,2.40644 12.53579,4.08913 6.69205,1.68271 16.74581,1.68271 l 11.68754,-0.23522 q 10.05378,-0.72375 26.35979,-0.72375 62.33342,0 91.39512,15.18048 29.06169,15.18046 29.06169,44.31103 0,24.57101 -19.66771,39.26295 z M 515.9482,189.81813 q -10.4308,0 -17.56268,-4.08914 -7.10048,-4.08913 -7.10048,-9.64385 0,-5.77183 7.10048,-9.86097 7.13188,-4.10723 17.56268,-4.10723 9.61393,0 16.71441,4.10723 7.1319,4.08914 7.1319,9.86097 0,5.55472 -7.1319,9.64385 -7.10048,4.08914 -16.71441,4.08914 z m 215.82191,15.65091 q 26.76818,0 43.92243,4.57767 17.15427,4.57766 26.7682,17.46025 9.61392,12.88259 9.61392,36.72985 0,29.63719 -17.37419,43.49683 -17.34278,13.84155 -59.1602,13.84155 -25.10302,0 -44.33087,-5.30141 -5.84376,1.91792 -13.38409,3.3654 -7.54034,1.44748 -21.33286,1.44748 H 625.54567 V 304.2235 h 28.43335 v -60.68568 q 0,-21.44082 20.48456,-29.74575 20.51599,-8.32303 57.30653,-8.32303 z m -10.87064,98.75446 q 33.46021,0 43.48259,-13.1178 10.05378,-13.1359 10.05378,-27.33932 0,-41.43417 -45.17917,-41.43417 -37.63883,0 -37.63883,26.97745 v 54.91384 z m -26.76818,11.56176 h -0.40845 z"
       fill-rule="nonzero"
       id="path13"
       style="stroke-width:1.5259" />
    <path
       fill="#ff0000"
       d="m 272.73934,519.87756 q -9.79378,0 -15.22813,-2.94981 -5.43436,-2.94983 -7.68374,-9.18373 -2.22949,-6.25361 -2.22949,-16.71562 v -51.6808 l -33.97965,74.49268 h -2.70723 l -35.33327,-75.84959 v 75.84959 h -5.43436 v -88.5928 h 12.91905 l 32.60613,69.79267 31.92933,-69.79267 h 12.22233 v 65.78092 q 0,12.46788 3.18498,19.33108 3.20487,6.84358 9.73405,6.84358 z m 86.41691,-5.36866 q -6.52919,0 -12.91903,-3.55945 -6.38985,-3.55941 -10.1919,-13.88377 l -3.38403,-8.73146 h -38.0604 l -10.86872,25.50605 h -6.11116 l 38.04049,-88.59279 h 4.08074 l 29.89892,71.8182 q 3.40394,7.78752 6.38984,10.67834 2.98592,2.87112 8.55962,3.40208 v 2.69418 q -2.44845,0.66862 -5.43437,0.66862 z m -29.2221,-31.54335 -16.30307,-38.93758 -16.97988,38.93758 z m 115.36584,32.21197 q -6.38983,0 -13.31715,-3.42179 -6.92731,-3.42174 -15.90496,-12.68417 l -28.52539,-29.5375 v 44.30621 h -12.22231 v -72.48679 q 0,-6.84359 -1.91099,-10.12771 -1.91098,-3.30379 -7.60412,-3.30379 h -2.72713 v -2.6745 h 12.24224 q 5.01632,0 7.52449,1.27824 2.52806,1.27827 3.60299,4.64105 1.09483,3.34312 1.09483,10.18671 v 26.17471 l 28.52539,-28.1806 2.72715,-2.83182 q 3.80204,-3.89375 6.36993,-6.09629 2.58779,-2.22219 6.11116,-3.6971 3.54328,-1.4749 7.90272,-1.4749 h 6.78796 v 3.34313 q -5.71303,0 -9.93312,1.94686 -4.20018,1.94689 -9.77389,7.45322 l -26.49497,26.1747 31.25253,32.23166 q 5.99172,6.0373 12.10289,10.1277 6.11115,4.09038 11.00805,4.75901 v 2.55651 q -4.08074,1.33724 -8.8383,1.33724 z m 22.02019,-73.82404 q 0,-6.84359 -1.91098,-10.12771 -1.91098,-3.30379 -7.60412,-3.30379 h -2.72713 v -2.6745 h 12.24223 q 5.01637,0 7.52453,1.27824 2.52808,1.27827 3.60301,4.64105 1.09482,3.34312 1.09482,10.18671 v 24.16883 h 40.76763 v -40.27483 h 12.22233 v 72.48683 q 0,6.84357 1.89108,10.1277 1.91098,3.28409 7.62402,3.28409 h 2.70723 v 2.69417 H 532.5325 q -5.03623,0 -7.5444,-1.27826 -2.50817,-1.27825 -3.603,-4.62134 -1.07493,-3.36279 -1.07493,-10.20636 v -26.84334 h -40.76763 v 42.9493 h -12.22236 z m 94.16406,0 q 0,-6.84359 -1.91098,-10.12771 -1.91099,-3.30379 -7.60412,-3.30379 h -2.72713 v -2.6745 h 35.33326 q 14.81012,0 25.73856,4.8377 10.94833,4.81803 10.94833,18.64283 0,6.31261 -4.35943,11.42563 -4.33953,5.09336 -13.29725,8.04317 12.50101,2.02553 17.45763,7.3352 4.9566,5.29002 4.9566,14.13947 0,13.56916 -10.80899,18.87882 -10.78909,5.28997 -26.55469,5.28997 h -27.17179 z m 25.12145,24.83745 q 5.5737,0 10.53032,-2.08453 4.97652,-2.08454 8.10176,-6.17495 3.12526,-4.09041 3.12526,-9.87206 0,-6.03729 -3.68263,-10.12771 -3.66271,-4.09041 -9.31603,-6.03728 -5.63342,-1.94689 -11.4659,-1.94689 -4.75755,0 -10.1919,1.33725 v 34.90617 z m 0,42.94933 q 12.38158,0 19.08993,-4.81804 6.72825,-4.8377 6.72825,-13.98212 0,-9.12477 -6.58892,-13.94281 -6.5889,-4.8377 -19.22926,-4.8377 h -12.89912 v 35.71245 q 6.52918,1.86822 12.89912,1.86822 z m 59.3952,-67.78678 q 0,-6.84359 -1.91098,-10.12771 -1.91098,-3.30379 -7.60412,-3.30379 h -2.72712 v -2.6745 h 57.88684 q 11.54552,0 11.54552,10.73733 v 10.06871 h -2.70723 q 0,-15.43738 -16.97988,-15.43738 h -25.2807 v 34.90617 h 36.68688 v 5.36866 h -36.68688 v 37.58067 h 23.76784 q 9.37577,0 14.67078,-3.34313 5.31491,-3.3628 8.44017,-11.42562 l 2.70723,0.66862 -4.75756,12.76288 q -2.42854,6.70588 -10.172,6.70588 h -46.87879 z m 139.80716,73.82404 q -7.06667,0 -12.4413,-4.22807 -5.35473,-4.22803 -11.88391,-15.24068 L 747.9069,472.89686 h -9.51511 v 40.94342 h -12.22232 v -72.48679 q 0,-6.84359 -1.91098,-10.12772 -1.91099,-3.30379 -7.60412,-3.30379 h -2.72713 v -2.6745 h 35.33327 q 12.7797,0 23.36972,5.03436 10.59003,5.03434 10.59003,18.99681 0,10.46201 -6.19079,15.63404 -6.17089,5.172 -15.54663,7.31554 l 14.27264,23.48054 q 5.03624,8.33815 9.03736,11.62227 4.00112,3.28409 9.31603,3.81506 v 2.69417 q -1.23418,0.53097 -3.54327,0.92427 -2.30911,0.41297 -4.75755,0.41298 z m -37.64238,-46.98071 q 4.49877,0 9.5151,-2.00588 5.03624,-2.02553 8.49989,-6.3126 3.46367,-4.28706 3.46367,-10.73733 0,-6.45027 -3.54329,-10.73734 -3.52337,-4.30673 -8.47998,-6.37159 -4.95662,-2.08455 -9.45539,-2.08455 -4.33952,0 -9.77388,1.33725 v 36.91204 z"
       fill-rule="nonzero"
       id="path15"
       style="stroke-width:1.26627" />
  </g>
</svg>
